<svg xmlns="http://www.w3.org/2000/svg" xmlns:xlink="http://www.w3.org/1999/xlink" xmlns:lucid="lucid" width="1405.86" height="833.22"><g transform="translate(-355.14444444444445 -139.5)" lucid:page-tab-id="0_0"><path d="M1360 609.45a6 6 0 0 1 6-6h368a6 6 0 0 1 6 6v336.27a6 6 0 0 1-6 6h-368a6 6 0 0 1-6-6z" fill-opacity="0"/><path d="M1378 603.45h8m8 0h8m8 0h8m8 0h8m8 0h8m8 0h8m8 0h8m8 0h8m8 0h8m8 0h8m8 0h8m8 0h8m8 0h8m8 0h8m8 0h8m8 0h8m8 0h8m8 0h8m8 0h8m8 0h8m8 0h8m8 0h8m8 0h4l.94.07.9.22.88.36.8.5.72.6.6.72.5.8.37.88.23.9.07.95v4m0 8v8m0 8.02v8m0 8v8.02m0 8v8m0 8v8.02m0 8v8m0 8.02v8m0 8v8.02m0 8v8m0 8.02v8m0 8v8.02m0 8v8m0 8.02v8m0 8v8.02m0 8v8m0 8.02v8m0 8v8m0 8.02v8m0 8.02v8m0 8v8m0 8.02v4l-.07.94-.22.92-.35.87-.5.8-.6.72-.72.6-.8.5-.88.36-.9.22-.95.07h-4m-8 0h-8m-8 0h-8m-8 0h-8m-8 0h-8m-8 0h-8m-8 0h-8m-8 0h-8m-8 0h-8m-8 0h-8m-8 0h-8m-8 0h-8m-8 0h-8m-8 0h-8m-8 0h-8m-8 0h-8m-8 0h-8m-8 0h-8m-8 0h-8m-8 0h-8m-8 0h-8m-8 0h-8m-8 0h-8m-8 0h-4l-.94-.07-.9-.22-.88-.36-.8-.5-.72-.6-.6-.72-.5-.8-.37-.87-.23-.92-.07-.93v-4m0-8v-8.02m0-8v-8m0-8v-8.02m0-8v-8m0-8.02v-8m0-8v-8.02m0-8v-8m0-8.02v-8m0-8v-8.02m0-8v-8m0-8.02v-8m0-8v-8.02m0-8v-8m0-8.02v-8m0-8v-8.02m0-8v-8m0-8v-8.02m0-8v-8m0-8.02v-8m0-8v-8.02m0-8v-4l.07-.95.22-.9.35-.88.5-.8.6-.7.72-.63.8-.5.88-.36.9-.22.95-.07h4" stroke="#3a414a" stroke-width="2" fill="none"/><path d="M1270 280c16.57 0 30 13.43 30 30v420c0 16.57-13.43 30-30 30H510c-16.57 0-30-13.43-30-30V310c0-16.57 13.43-30 30-30z" stroke="#3a414a" fill="#ffdda6"/><path d="M540 586a6 6 0 0 1 6-6h88a6 6 0 0 1 6 6v68a6 6 0 0 1-6 6h-88a6 6 0 0 1-6-6z" stroke="#3a414a" fill="#fff3d9"/><path d="M540 586a6 6 0 0 1 6-6h88a6 6 0 0 1 6 6v11.45a6 6 0 0 1-6 6h-88a6 6 0 0 1-6-6z" stroke="#3a414a" fill="#e08fff"/><path d="M700 586a6 6 0 0 1 6-6h88a6 6 0 0 1 6 6v68a6 6 0 0 1-6 6h-88a6 6 0 0 1-6-6z" stroke="#3a414a" fill="#fff3d9"/><path d="M700 586a6 6 0 0 1 6-6h88a6 6 0 0 1 6 6v11.45a6 6 0 0 1-6 6h-88a6 6 0 0 1-6-6z" stroke="#3a414a" fill="#00c2a8"/><path d="M860 586a6 6 0 0 1 6-6h88a6 6 0 0 1 6 6v68a6 6 0 0 1-6 6h-88a6 6 0 0 1-6-6z" stroke="#3a414a" fill="#fff3d9"/><path d="M860 586a6 6 0 0 1 6-6h88a6 6 0 0 1 6 6v11.45a6 6 0 0 1-6 6h-88a6 6 0 0 1-6-6z" stroke="#3a414a" fill="#e08fff"/><path d="M1020 586a6 6 0 0 1 6-6h88a6 6 0 0 1 6 6v68a6 6 0 0 1-6 6h-88a6 6 0 0 1-6-6z" stroke="#3a414a" fill="#fff3d9"/><path d="M1020 586a6 6 0 0 1 6-6h88a6 6 0 0 1 6 6v11.45a6 6 0 0 1-6 6h-88a6 6 0 0 1-6-6z" stroke="#3a414a" fill="#e08fff"/><path d="M590 679v40" stroke="#3a414a" stroke-width="2" fill="none"/><path d="M590 663.74l4.63 14.26h-9.26z" stroke="#3a414a" stroke-width="2" fill="#3a414a"/><path d="M590 718.97V720M750 679v35a6 6 0 0 1-6 6H536a6 6 0 0 0-6 6v113" stroke="#3a414a" stroke-width="2" fill="none"/><path d="M750 663.74l4.63 14.26h-9.26z" stroke="#3a414a" stroke-width="2" fill="#3a414a"/><path d="M530 838.97V840M910 679v35a6 6 0 0 1-6 6H641.74" stroke="#3a414a" stroke-width="2" fill="none"/><path d="M910 663.74l4.63 14.26h-9.26z" stroke="#3a414a" stroke-width="2" fill="#3a414a"/><path d="M641.77 720h-1.03M1070 679v35a6 6 0 0 1-6 6H421" stroke="#3a414a" stroke-width="2" fill="none"/><path d="M1070 663.74l4.63 14.26h-9.27z" stroke="#3a414a" stroke-width="2" fill="#3a414a"/><path d="M421.03 720H420M590 578.5v-199" stroke="#3a414a" stroke-width="2" fill="none"/><path d="M591 579.5h-2v-1.03h2z" stroke="#3a414a" stroke-width=".05" fill="#3a414a"/><path d="M590 364.24l4.63 14.26h-9.26z" stroke="#3a414a" stroke-width="2" fill="#3a414a"/><path d="M1002 340h339.5" stroke="#3a414a" stroke-width="2" fill="none"/><path d="M1002.03 341h-1.15l.12-.95-.03-1.05h1.06z" stroke="#3a414a" stroke-width=".05" fill="#3a414a"/><path d="M1356.76 340l-14.26 4.63v-9.26z" stroke="#3a414a" stroke-width="2" fill="#3a414a"/><path d="M910 578.5v-79" stroke="#3a414a" stroke-width="2" fill="none"/><path d="M911 579.5h-2v-1.03h2z" stroke="#3a414a" stroke-width=".05" fill="#3a414a"/><path d="M910 484.24l4.63 14.26h-9.26z" stroke="#3a414a" stroke-width="2" fill="#3a414a"/><path d="M1000 340c0 11.05-8.95 20-20 20s-20-8.95-20-20 8.95-20 20-20 20 8.95 20 20zm-40 0h40m-20-20v40" stroke="#3a414a" stroke-width="2" fill="#fff"/><path d="M1070 578.5v-57.25a6 6 0 0 1 6-6h58a6 6 0 0 0 6-6V469.5" stroke="#3a414a" stroke-width="2" fill="none"/><path d="M1071 579.5h-2v-1.03h2z" stroke="#3a414a" stroke-width=".05" fill="#3a414a"/><path d="M1140 454.24l4.63 14.26h-9.27z" stroke="#3a414a" stroke-width="2" fill="#3a414a"/><path d="M1097.45 380a6 6 0 0 1 6 6v88a6 6 0 0 1-6 6H1086a6 6 0 0 1-6-6v-88a6 6 0 0 1 6-6z" stroke="#3a414a" fill="#00c2a8"/><path d="M1061 430h-31.77a6 6 0 0 1-6-6v-83" stroke="#3a414a" stroke-width="2" fill="none"/><path d="M1076.26 430l-14.26 4.63v-9.26z" stroke="#3a414a" stroke-width="2" fill="#3a414a"/><path d="M1023.23 341.03V340M1104.95 430h236.55" stroke="#3a414a" stroke-width="2" fill="none"/><path d="M1104.97 431h-1.02v-2h1.02z" stroke="#3a414a" stroke-width=".05" fill="#3a414a"/><path d="M1356.76 430l-14.26 4.63v-9.26z" stroke="#3a414a" stroke-width="2" fill="#3a414a"/><path d="M1202.7 429v-84c-2.77 0-5-2.24-5-5s2.23-5 5-5V218.5M1202.7 428.97V430" stroke="#3a414a" stroke-width="2" fill="none"/><path d="M1202.7 203.24l4.63 14.26h-9.27z" stroke="#3a414a" stroke-width="2" fill="#3a414a"/><path d="M610 340c0 11.05-8.95 20-20 20s-20-8.95-20-20 8.95-20 20-20 20 8.95 20 20zm-34.14-14.14l28.28 28.28m-28.28 0l28.28-28.28M1160 430c0 11.05-8.95 20-20 20s-20-8.95-20-20 8.95-20 20-20 20 8.95 20 20zm-34.14-14.14l28.28 28.28m-28.28 0l28.28-28.28M930 460c0 11.05-8.95 20-20 20s-20-8.95-20-20 8.95-20 20-20 20 8.95 20 20zm-34.14-14.14l28.28 28.28m-28.28 0l28.28-28.28" stroke="#3a414a" stroke-width="2" fill="#fff"/><path d="M612 340h328.5" stroke="#3a414a" stroke-width="2" fill="none"/><path d="M612.03 341h-1.15l.12-.95-.03-1.05h1.06z" stroke="#3a414a" stroke-width=".05" fill="#3a414a"/><path d="M955.76 340l-14.26 4.63v-9.26z" stroke="#3a414a" stroke-width="2" fill="#3a414a"/><path d="M550.5 340H421" stroke="#3a414a" stroke-width="2" fill="none"/><path d="M565.76 340l-14.26 4.63v-9.26z" stroke="#3a414a" stroke-width="2" fill="#3a414a"/><path d="M421.03 340H420M750 578.5V466a6 6 0 0 1 6-6h114.5" stroke="#3a414a" stroke-width="2" fill="none"/><path d="M751 579.5h-2v-1.03h2z" stroke="#3a414a" stroke-width=".05" fill="#3a414a"/><path d="M885.76 460l-14.26 4.63v-9.26z" stroke="#3a414a" stroke-width="2" fill="#3a414a"/><path d="M932 460h42a6 6 0 0 0 6-6v-74.5" stroke="#3a414a" stroke-width="2" fill="none"/><path d="M932.03 461h-1.15l.12-.95-.03-1.05h1.06z" stroke="#3a414a" stroke-width=".05" fill="#3a414a"/><path d="M980 364.24l4.63 14.26h-9.26z" stroke="#3a414a" stroke-width="2" fill="#3a414a"/><path d="M1380 820.14a6 6 0 0 1 6-6h69.3a6 6 0 0 1 6 6v11.45a6 6 0 0 1-6 6H1386a6 6 0 0 1-6-6z" stroke="#3a414a" fill="#e08fff"/><path d="M1380 768.4a6 6 0 0 1 6-6h69.3a6 6 0 0 1 6 6v11.46a6 6 0 0 1-6 6H1386a6 6 0 0 1-6-6z" stroke="#3a414a" fill="#00c2a8"/><path d="M1440 646.03c0 11.04-8.95 20-20 20s-20-8.96-20-20c0-11.05 8.95-20 20-20s20 8.95 20 20zm-34.14-14.14l28.28 28.27m-28.28 0l28.28-28.28M1440 714.22c0 11.05-8.95 20-20 20s-20-8.95-20-20 8.95-20 20-20 20 8.95 20 20zm-40 0h40m-20-20v40" stroke="#3a414a" stroke-width="2" fill="#fff"/><path d="M1480 617.7a6 6 0 0 1 6-6h248a6 6 0 0 1 6 6v56.66a6 6 0 0 1-6 6h-248a6 6 0 0 1-6-6z" stroke="#000" stroke-opacity="0" fill="#fff" fill-opacity="0"/><use xlink:href="#a" transform="matrix(1,0,0,1,1485,616.695227347995) translate(0 23.243055555555554)"/><use xlink:href="#b" transform="matrix(1,0,0,1,1485,616.695227347995) translate(0 52.576388888888886)"/><path d="M1480 700.22a6 6 0 0 1 6-6h248a6 6 0 0 1 6 6v28a6 6 0 0 1-6 6h-248a6 6 0 0 1-6-6z" stroke="#000" stroke-opacity="0" fill="#fff" fill-opacity="0"/><use xlink:href="#c" transform="matrix(1,0,0,1,1485,699.2208941782966) translate(0 21.430555555555554)"/><path d="M1480 760.14a6 6 0 0 1 6-6h228a6 6 0 0 1 6 6v28a6 6 0 0 1-6 6h-228a6 6 0 0 1-6-6z" stroke="#000" stroke-opacity="0" fill="#fff" fill-opacity="0"/><use xlink:href="#d" transform="matrix(1,0,0,1,1485,759.1377425584215) translate(0 21.430555555555554)"/><use xlink:href="#e" transform="matrix(1,0,0,1,1485,759.1377425584215) translate(54.320987654320966 21.430555555555554)"/><path d="M1480 811.86a6 6 0 0 1 6-6h228a6 6 0 0 1 6 6v28a6 6 0 0 1-6 6h-228a6 6 0 0 1-6-6z" stroke="#000" stroke-opacity="0" fill="#fff" fill-opacity="0"/><use xlink:href="#f" transform="matrix(1,0,0,1,1485,810.8622574415783) translate(0 21.430555555555554)"/><use xlink:href="#e" transform="matrix(1,0,0,1,1485,810.8622574415783) translate(81.27777777777776 21.430555555555554)"/><path d="M1480 866.53a6 6 0 0 1 6-6h248a6 6 0 0 1 6 6v56.67a6 6 0 0 1-6 6h-248a6 6 0 0 1-6-6z" stroke="#000" stroke-opacity="0" fill="#fff" fill-opacity="0"/><use xlink:href="#g" transform="matrix(1,0,0,1,1485,865.5289241082451) translate(0 23.243055555555554)"/><use xlink:href="#h" transform="matrix(1,0,0,1,1485,865.5289241082451) translate(58.19135802469135 23.243055555555554)"/><use xlink:href="#i" transform="matrix(1,0,0,1,1485,865.5289241082451) translate(0 52.576388888888886)"/><use xlink:href="#j" transform="matrix(1,0,0,1,1485,865.5289241082451) translate(78.56172839506172 52.576388888888886)"/><use xlink:href="#k" transform="matrix(1,0,0,1,1485,865.5289241082451) translate(174.77777777777771 52.576388888888886)"/><path d="M1380 871.86a6 6 0 0 1 6-6h69.3a6 6 0 0 1 6 6v40.74a6 6 0 0 1-6 6H1386a6 6 0 0 1-6-6z" stroke="#3a414a" fill="#fff3d9"/><path d="M1040 609.45a6 6 0 0 1 6-6h48a6 6 0 0 1 6 6v33.86a6 6 0 0 1-6 6h-48a6 6 0 0 1-6-6z" stroke="#000" stroke-opacity="0" fill="#fff" fill-opacity="0"/><use xlink:href="#l" transform="matrix(1,0,0,1,1045,608.4490297663136) translate(10.246913580246915 22.27777777777778)"/><path d="M880 609.45a6 6 0 0 1 6-6h48a6 6 0 0 1 6 6v33.86a6 6 0 0 1-6 6h-48a6 6 0 0 1-6-6z" stroke="#000" stroke-opacity="0" fill="#fff" fill-opacity="0"/><use xlink:href="#l" transform="matrix(1,0,0,1,885,608.4490297663136) translate(10.246913580246915 22.27777777777778)"/><path d="M720 609.45a6 6 0 0 1 6-6h48a6 6 0 0 1 6 6v33.86a6 6 0 0 1-6 6h-48a6 6 0 0 1-6-6z" stroke="#000" stroke-opacity="0" fill="#fff" fill-opacity="0"/><use xlink:href="#l" transform="matrix(1,0,0,1,725,608.4490297663135) translate(10.246913580246915 22.27777777777778)"/><path d="M560 609.45a6 6 0 0 1 6-6h48a6 6 0 0 1 6 6v33.86a6 6 0 0 1-6 6h-48a6 6 0 0 1-6-6z" stroke="#000" stroke-opacity="0" fill="#fff" fill-opacity="0"/><use xlink:href="#l" transform="matrix(1,0,0,1,565,608.4490297663135) translate(10.246913580246915 22.27777777777778)"/><path d="M1390.65 875.3a6 6 0 0 1 6-6h48a6 6 0 0 1 6 6v33.86a6 6 0 0 1-6 6h-48a6 6 0 0 1-6-6z" stroke="#000" stroke-opacity="0" fill="#fff" fill-opacity="0"/><use xlink:href="#l" transform="matrix(1,0,0,1,1395.6459996397666,874.3013128952846) translate(10.246913580246915 22.27777777777778)"/><path d="M440 286a6 6 0 0 1 6-6h228a6 6 0 0 1 6 6v48a6 6 0 0 1-6 6H446a6 6 0 0 1-6-6z" stroke="#000" stroke-opacity="0" fill="#fff" fill-opacity="0"/><use xlink:href="#m" transform="matrix(1,0,0,1,445,285) translate(55.80246913580248 30.27777777777778)"/><use xlink:href="#n" transform="matrix(1,0,0,1,445,285) translate(126.04938271604938 30.27777777777778)"/><path d="M720 416a6 6 0 0 1 6-6h228a6 6 0 0 1 6 6v48a6 6 0 0 1-6 6H726a6 6 0 0 1-6-6z" stroke="#000" stroke-opacity="0" fill="#fff" fill-opacity="0"/><use xlink:href="#o" transform="matrix(1,0,0,1,725,415) translate(63.14814814814815 30.27777777777778)"/><use xlink:href="#n" transform="matrix(1,0,0,1,725,415) translate(118.70370370370371 30.27777777777778)"/><path d="M1100 446a6 6 0 0 1 6-6h228a6 6 0 0 1 6 6v48a6 6 0 0 1-6 6h-228a6 6 0 0 1-6-6z" stroke="#000" stroke-opacity="0" fill="#fff" fill-opacity="0"/><use xlink:href="#p" transform="matrix(1,0,0,1,1105,445) translate(54.50617283950618 30.27777777777778)"/><use xlink:href="#n" transform="matrix(1,0,0,1,1105,445) translate(127.34567901234567 30.27777777777778)"/><path d="M540 536a6 6 0 0 1 6-6h28a6 6 0 0 1 6 6v38a6 6 0 0 1-6 6h-28a6 6 0 0 1-6-6z" stroke="#000" stroke-opacity="0" fill="#fff" fill-opacity="0"/><use xlink:href="#q" transform="matrix(1,0,0,1,545,535) translate(2.4756172839506174 24.555555555555557)"/><path d="M700 536a6 6 0 0 1 6-6h28a6 6 0 0 1 6 6v38a6 6 0 0 1-6 6h-28a6 6 0 0 1-6-6z" stroke="#000" stroke-opacity="0" fill="#fff" fill-opacity="0"/><use xlink:href="#r" transform="matrix(1,0,0,1,705,535) translate(-0.9194444444444443 24.88888888888889)"/><path d="M860 536a6 6 0 0 1 6-6h28a6 6 0 0 1 6 6v38a6 6 0 0 1-6 6h-28a6 6 0 0 1-6-6z" stroke="#000" stroke-opacity="0" fill="#fff" fill-opacity="0"/><use xlink:href="#s" transform="matrix(1,0,0,1,865,535) translate(3.120679012345679 24.555555555555557)"/><path d="M1020 536a6 6 0 0 1 6-6h28a6 6 0 0 1 6 6v38a6 6 0 0 1-6 6h-28a6 6 0 0 1-6-6z" stroke="#000" stroke-opacity="0" fill="#fff" fill-opacity="0"/><use xlink:href="#t" transform="matrix(1,0,0,1,1025,535) translate(-0.9194444444444443 24.88888888888889)"/><path d="M380 336a6 6 0 0 1 6-6h28a6 6 0 0 1 6 6v38a6 6 0 0 1-6 6h-28a6 6 0 0 1-6-6z" stroke="#000" stroke-opacity="0" fill="#fff" fill-opacity="0"/><use xlink:href="#u" transform="matrix(1,0,0,1,385,335) translate(-7.855555555555554 24.88888888888889)"/><path d="M380 712.57a6 6 0 0 1 6-6h28a6 6 0 0 1 6 6v38a6 6 0 0 1-6 6h-28a6 6 0 0 1-6-6z" stroke="#000" stroke-opacity="0" fill="#fff" fill-opacity="0"/><use xlink:href="#v" transform="matrix(1,0,0,1,385,711.5709188589012) translate(-8.500617283950614 24.88888888888889)"/><path d="M1360 321a6 6 0 0 1 6-6h28a6 6 0 0 1 6 6v38a6 6 0 0 1-6 6h-28a6 6 0 0 1-6-6z" stroke="#000" stroke-opacity="0" fill="#fff" fill-opacity="0"/><g><use xlink:href="#w" transform="matrix(1,0,0,1,1365,320) translate(-0.2743827160493826 24.88888888888889)"/></g><path d="M1360 411a6 6 0 0 1 6-6h28a6 6 0 0 1 6 6v38a6 6 0 0 1-6 6h-28a6 6 0 0 1-6-6z" stroke="#000" stroke-opacity="0" fill="#fff" fill-opacity="0"/><g><use xlink:href="#x" transform="matrix(1,0,0,1,1365,410) translate(-0.9194444444444443 24.88888888888889)"/></g><path d="M520 846a6 6 0 0 1 6-6h28a6 6 0 0 1 6 6v26.27a6 6 0 0 1-6 6h-28a6 6 0 0 1-6-6z" stroke="#000" stroke-opacity="0" fill="#fff" fill-opacity="0"/><g><use xlink:href="#y" transform="matrix(1,0,0,1,525,845) translate(-0.2743827160493826 19.555555555555557)"/></g><path d="M1180 166a6 6 0 0 1 6-6h28a6 6 0 0 1 6 6v28a6 6 0 0 1-6 6h-28a6 6 0 0 1-6-6z" stroke="#000" stroke-opacity="0" fill="#fff" fill-opacity="0"/><g><use xlink:href="#z" transform="matrix(1,0,0,1,1185,165) translate(-0.2743827160493826 19.88888888888889)"/></g><path d="M1120 704.3a6 6 0 0 1 6-6h148a6 6 0 0 1 6 6v36.27a6 6 0 0 1-6 6h-148a6 6 0 0 1-6-6z" stroke="#000" stroke-opacity="0" fill="#fff" fill-opacity="0"/><g><use xlink:href="#A" transform="matrix(1,0,0,1,1125,703.295433742058) translate(5.345679012345684 25.54861111111111)"/><use xlink:href="#B" transform="matrix(1,0,0,1,1125,703.295433742058) translate(91.77160493827161 25.54861111111111)"/></g><defs><path fill="#3a414a" d="M30 0v-248h187v28H63v79h144v27H63v87h162V0H30" id="C"/><path fill="#3a414a" d="M24 0v-261h32V0H24" id="D"/><path fill="#3a414a" d="M100-194c63 0 86 42 84 106H49c0 40 14 67 53 68 26 1 43-12 49-29l28 8c-11 28-37 45-77 45C44 4 14-33 15-96c1-61 26-98 85-98zm52 81c6-60-76-77-97-28-3 7-6 17-6 28h103" id="E"/><path fill="#3a414a" d="M210-169c-67 3-38 105-44 169h-31v-121c0-29-5-50-35-48C34-165 62-65 56 0H25l-1-190h30c1 10-1 24 2 32 10-44 99-50 107 0 11-21 27-35 58-36 85-2 47 119 55 194h-31v-121c0-29-5-49-35-48" id="F"/><path fill="#3a414a" d="M117-194c89-4 53 116 60 194h-32v-121c0-31-8-49-39-48C34-167 62-67 57 0H25l-1-190h30c1 10-1 24 2 32 11-22 29-35 61-36" id="G"/><path fill="#3a414a" d="M59-47c-2 24 18 29 38 22v24C64 9 27 4 27-40v-127H5v-23h24l9-43h21v43h35v23H59v120" id="H"/><path fill="#3a414a" d="M16-82v-28h88v28H16" id="I"/><path fill="#3a414a" d="M206 0h-36l-40-164L89 0H53L-1-190h32L70-26l43-164h34l41 164 42-164h31" id="J"/><path fill="#3a414a" d="M24-231v-30h32v30H24zM24 0v-190h32V0H24" id="K"/><path fill="#3a414a" d="M135-143c-3-34-86-38-87 0 15 53 115 12 119 90S17 21 10-45l28-5c4 36 97 45 98 0-10-56-113-15-118-90-4-57 82-63 122-42 12 7 21 19 24 35" id="L"/><g id="a"><use transform="matrix(0.06790123456790122,0,0,0.06790123456790122,0,0)" xlink:href="#C"/><use transform="matrix(0.06790123456790122,0,0,0.06790123456790122,16.29629629629629,0)" xlink:href="#D"/><use transform="matrix(0.06790123456790122,0,0,0.06790123456790122,21.660493827160487,0)" xlink:href="#E"/><use transform="matrix(0.06790123456790122,0,0,0.06790123456790122,35.24074074074073,0)" xlink:href="#F"/><use transform="matrix(0.06790123456790122,0,0,0.06790123456790122,55.5432098765432,0)" xlink:href="#E"/><use transform="matrix(0.06790123456790122,0,0,0.06790123456790122,69.12345679012344,0)" xlink:href="#G"/><use transform="matrix(0.06790123456790122,0,0,0.06790123456790122,82.70370370370368,0)" xlink:href="#H"/><use transform="matrix(0.06790123456790122,0,0,0.06790123456790122,89.49382716049381,0)" xlink:href="#I"/><use transform="matrix(0.06790123456790122,0,0,0.06790123456790122,97.57407407407405,0)" xlink:href="#J"/><use transform="matrix(0.06790123456790122,0,0,0.06790123456790122,115.16049382716047,0)" xlink:href="#K"/><use transform="matrix(0.06790123456790122,0,0,0.06790123456790122,120.52469135802465,0)" xlink:href="#L"/><use transform="matrix(0.06790123456790122,0,0,0.06790123456790122,132.74691358024688,0)" xlink:href="#E"/></g><path fill="#3a414a" d="M84 4C-5 8 30-112 23-190h32v120c0 31 7 50 39 49 72-2 45-101 50-169h31l1 190h-30c-1-10 1-25-2-33-11 22-28 36-60 37" id="M"/><path fill="#3a414a" d="M115-194c55 1 70 41 70 98S169 2 115 4C84 4 66-9 55-30l1 105H24l-1-265h31l2 30c10-21 28-34 59-34zm-8 174c40 0 45-34 45-75s-6-73-45-74c-42 0-51 32-51 76 0 43 10 73 51 73" id="N"/><path fill="#3a414a" d="M96-169c-40 0-48 33-48 73s9 75 48 75c24 0 41-14 43-38l32 2c-6 37-31 61-74 61-59 0-76-41-82-99-10-93 101-131 147-64 4 7 5 14 7 22l-32 3c-4-21-16-35-41-35" id="O"/><path fill="#3a414a" d="M141-36C126-15 110 5 73 4 37 3 15-17 15-53c-1-64 63-63 125-63 3-35-9-54-41-54-24 1-41 7-42 31l-33-3c5-37 33-52 76-52 45 0 72 20 72 64v82c-1 20 7 32 28 27v20c-31 9-61-2-59-35zM48-53c0 20 12 33 32 33 41-3 63-29 60-74-43 2-92-5-92 41" id="P"/><path fill="#3a414a" d="M100-194c62-1 85 37 85 99 1 63-27 99-86 99S16-35 15-95c0-66 28-99 85-99zM99-20c44 1 53-31 53-75 0-43-8-75-51-75s-53 32-53 75 10 74 51 75" id="Q"/><g id="b"><use transform="matrix(0.06790123456790122,0,0,0.06790123456790122,0,0)" xlink:href="#F"/><use transform="matrix(0.06790123456790122,0,0,0.06790123456790122,20.302469135802465,0)" xlink:href="#M"/><use transform="matrix(0.06790123456790122,0,0,0.06790123456790122,33.88271604938271,0)" xlink:href="#D"/><use transform="matrix(0.06790123456790122,0,0,0.06790123456790122,39.246913580246904,0)" xlink:href="#H"/><use transform="matrix(0.06790123456790122,0,0,0.06790123456790122,46.037037037037024,0)" xlink:href="#K"/><use transform="matrix(0.06790123456790122,0,0,0.06790123456790122,51.40123456790122,0)" xlink:href="#N"/><use transform="matrix(0.06790123456790122,0,0,0.06790123456790122,64.98148148148147,0)" xlink:href="#D"/><use transform="matrix(0.06790123456790122,0,0,0.06790123456790122,70.34567901234567,0)" xlink:href="#K"/><use transform="matrix(0.06790123456790122,0,0,0.06790123456790122,75.70987654320987,0)" xlink:href="#O"/><use transform="matrix(0.06790123456790122,0,0,0.06790123456790122,87.93209876543209,0)" xlink:href="#P"/><use transform="matrix(0.06790123456790122,0,0,0.06790123456790122,101.51234567901234,0)" xlink:href="#H"/><use transform="matrix(0.06790123456790122,0,0,0.06790123456790122,108.30246913580245,0)" xlink:href="#K"/><use transform="matrix(0.06790123456790122,0,0,0.06790123456790122,113.66666666666666,0)" xlink:href="#Q"/><use transform="matrix(0.06790123456790122,0,0,0.06790123456790122,127.2469135802469,0)" xlink:href="#G"/></g><path fill="#3a414a" d="M205 0l-28-72H64L36 0H1l101-248h38L239 0h-34zm-38-99l-47-123c-12 45-31 82-46 123h93" id="R"/><path fill="#3a414a" d="M85-194c31 0 48 13 60 33l-1-100h32l1 261h-30c-2-10 0-23-3-31C134-8 116 4 85 4 32 4 16-35 15-94c0-66 23-100 70-100zm9 24c-40 0-46 34-46 75 0 40 6 74 45 74 42 0 51-32 51-76 0-42-9-74-50-73" id="S"/><g id="c"><use transform="matrix(0.06790123456790122,0,0,0.06790123456790122,0,0)" xlink:href="#R"/><use transform="matrix(0.06790123456790122,0,0,0.06790123456790122,16.29629629629629,0)" xlink:href="#S"/><use transform="matrix(0.06790123456790122,0,0,0.06790123456790122,29.876543209876534,0)" xlink:href="#S"/><use transform="matrix(0.06790123456790122,0,0,0.06790123456790122,43.45679012345678,0)" xlink:href="#K"/><use transform="matrix(0.06790123456790122,0,0,0.06790123456790122,48.82098765432097,0)" xlink:href="#H"/><use transform="matrix(0.06790123456790122,0,0,0.06790123456790122,55.6111111111111,0)" xlink:href="#K"/><use transform="matrix(0.06790123456790122,0,0,0.06790123456790122,60.975308641975296,0)" xlink:href="#Q"/><use transform="matrix(0.06790123456790122,0,0,0.06790123456790122,74.55555555555554,0)" xlink:href="#G"/></g><path fill="#3a414a" d="M106-169C34-169 62-67 57 0H25v-261h32l-1 103c12-21 28-36 61-36 89 0 53 116 60 194h-32v-121c2-32-8-49-39-48" id="T"/><g id="d"><use transform="matrix(0.06790123456790122,0,0,0.06790123456790122,0,0)" xlink:href="#H"/><use transform="matrix(0.06790123456790122,0,0,0.06790123456790122,6.790123456790122,0)" xlink:href="#P"/><use transform="matrix(0.06790123456790122,0,0,0.06790123456790122,20.370370370370367,0)" xlink:href="#G"/><use transform="matrix(0.06790123456790122,0,0,0.06790123456790122,33.950617283950606,0)" xlink:href="#T"/></g><path fill="#3a414a" d="M101-234c-31-9-42 10-38 44h38v23H63V0H32v-167H5v-23h27c-7-52 17-82 69-68v24" id="U"/><g id="e"><use transform="matrix(0.06790123456790122,0,0,0.06790123456790122,0,0)" xlink:href="#U"/><use transform="matrix(0.06790123456790122,0,0,0.06790123456790122,6.790123456790122,0)" xlink:href="#M"/><use transform="matrix(0.06790123456790122,0,0,0.06790123456790122,20.370370370370367,0)" xlink:href="#G"/><use transform="matrix(0.06790123456790122,0,0,0.06790123456790122,33.950617283950606,0)" xlink:href="#O"/><use transform="matrix(0.06790123456790122,0,0,0.06790123456790122,46.17283950617283,0)" xlink:href="#H"/><use transform="matrix(0.06790123456790122,0,0,0.06790123456790122,52.96296296296295,0)" xlink:href="#K"/><use transform="matrix(0.06790123456790122,0,0,0.06790123456790122,58.327160493827144,0)" xlink:href="#Q"/><use transform="matrix(0.06790123456790122,0,0,0.06790123456790122,71.90740740740739,0)" xlink:href="#G"/></g><path fill="#3a414a" d="M177-190C167-65 218 103 67 71c-23-6-38-20-44-43l32-5c15 47 100 32 89-28v-30C133-14 115 1 83 1 29 1 15-40 15-95c0-56 16-97 71-98 29-1 48 16 59 35 1-10 0-23 2-32h30zM94-22c36 0 50-32 50-73 0-42-14-75-50-75-39 0-46 34-46 75s6 73 46 73" id="V"/><g id="f"><use transform="matrix(0.06790123456790122,0,0,0.06790123456790122,0,0)" xlink:href="#D"/><use transform="matrix(0.06790123456790122,0,0,0.06790123456790122,5.364197530864196,0)" xlink:href="#Q"/><use transform="matrix(0.06790123456790122,0,0,0.06790123456790122,18.94444444444444,0)" xlink:href="#V"/><use transform="matrix(0.06790123456790122,0,0,0.06790123456790122,32.52469135802468,0)" xlink:href="#K"/><use transform="matrix(0.06790123456790122,0,0,0.06790123456790122,37.88888888888888,0)" xlink:href="#L"/><use transform="matrix(0.06790123456790122,0,0,0.06790123456790122,50.1111111111111,0)" xlink:href="#H"/><use transform="matrix(0.06790123456790122,0,0,0.06790123456790122,56.90123456790122,0)" xlink:href="#K"/><use transform="matrix(0.06790123456790122,0,0,0.06790123456790122,62.265432098765416,0)" xlink:href="#O"/></g><path fill="#3a414a" d="M63-220v92h138v28H63V0H30v-248h175v28H63" id="W"/><path fill="#3a414a" d="M179-190L93 31C79 59 56 82 12 73V49c39 6 53-20 64-50L1-190h34L92-34l54-156h33" id="X"/><g id="g"><use transform="matrix(0.06790123456790122,0,0,0.06790123456790122,0,0)" xlink:href="#W"/><use transform="matrix(0.06790123456790122,0,0,0.06790123456790122,14.870370370370367,0)" xlink:href="#M"/><use transform="matrix(0.06790123456790122,0,0,0.06790123456790122,28.45061728395061,0)" xlink:href="#D"/><use transform="matrix(0.06790123456790122,0,0,0.06790123456790122,33.81481481481481,0)" xlink:href="#D"/><use transform="matrix(0.06790123456790122,0,0,0.06790123456790122,39.179012345679006,0)" xlink:href="#X"/></g><path fill="#3a414a" d="M212-179c-10-28-35-45-73-45-59 0-87 40-87 99 0 60 29 101 89 101 43 0 62-24 78-52l27 14C228-24 195 4 139 4 59 4 22-46 18-125c-6-104 99-153 187-111 19 9 31 26 39 46" id="Y"/><g id="h"><use transform="matrix(0.06790123456790122,0,0,0.06790123456790122,0,0)" xlink:href="#Y"/><use transform="matrix(0.06790123456790122,0,0,0.06790123456790122,17.586419753086414,0)" xlink:href="#Q"/><use transform="matrix(0.06790123456790122,0,0,0.06790123456790122,31.166666666666657,0)" xlink:href="#G"/><use transform="matrix(0.06790123456790122,0,0,0.06790123456790122,44.7469135802469,0)" xlink:href="#G"/><use transform="matrix(0.06790123456790122,0,0,0.06790123456790122,58.32716049382714,0)" xlink:href="#E"/><use transform="matrix(0.06790123456790122,0,0,0.06790123456790122,71.90740740740738,0)" xlink:href="#O"/><use transform="matrix(0.06790123456790122,0,0,0.06790123456790122,84.12962962962959,0)" xlink:href="#H"/><use transform="matrix(0.06790123456790122,0,0,0.06790123456790122,90.91975308641972,0)" xlink:href="#E"/><use transform="matrix(0.06790123456790122,0,0,0.06790123456790122,104.49999999999996,0)" xlink:href="#S"/></g><path fill="#3a414a" d="M190 0L58-211 59 0H30v-248h39L202-35l-2-213h31V0h-41" id="Z"/><path fill="#3a414a" d="M114-163C36-179 61-72 57 0H25l-1-190h30c1 12-1 29 2 39 6-27 23-49 58-41v29" id="aa"/><g id="i"><use transform="matrix(0.06790123456790122,0,0,0.06790123456790122,0,0)" xlink:href="#Z"/><use transform="matrix(0.06790123456790122,0,0,0.06790123456790122,17.586419753086414,0)" xlink:href="#E"/><use transform="matrix(0.06790123456790122,0,0,0.06790123456790122,31.166666666666657,0)" xlink:href="#M"/><use transform="matrix(0.06790123456790122,0,0,0.06790123456790122,44.7469135802469,0)" xlink:href="#aa"/><use transform="matrix(0.06790123456790122,0,0,0.06790123456790122,52.827160493827144,0)" xlink:href="#P"/><use transform="matrix(0.06790123456790122,0,0,0.06790123456790122,66.40740740740739,0)" xlink:href="#D"/></g><path fill="#3a414a" d="M143 0L79-87 56-68V0H24v-261h32v163l83-92h37l-77 82L181 0h-38" id="ab"/><g id="j"><use transform="matrix(0.06790123456790122,0,0,0.06790123456790122,0,0)" xlink:href="#Z"/><use transform="matrix(0.06790123456790122,0,0,0.06790123456790122,17.586419753086414,0)" xlink:href="#E"/><use transform="matrix(0.06790123456790122,0,0,0.06790123456790122,31.166666666666657,0)" xlink:href="#H"/><use transform="matrix(0.06790123456790122,0,0,0.06790123456790122,37.95679012345678,0)" xlink:href="#J"/><use transform="matrix(0.06790123456790122,0,0,0.06790123456790122,55.54320987654319,0)" xlink:href="#Q"/><use transform="matrix(0.06790123456790122,0,0,0.06790123456790122,69.12345679012343,0)" xlink:href="#aa"/><use transform="matrix(0.06790123456790122,0,0,0.06790123456790122,77.20370370370367,0)" xlink:href="#ab"/></g><path fill="#3a414a" d="M30 0v-248h33v221h125V0H30" id="ac"/><g id="k"><use transform="matrix(0.06790123456790122,0,0,0.06790123456790122,0,0)" xlink:href="#ac"/><use transform="matrix(0.06790123456790122,0,0,0.06790123456790122,13.580246913580243,0)" xlink:href="#P"/><use transform="matrix(0.06790123456790122,0,0,0.06790123456790122,27.160493827160487,0)" xlink:href="#X"/><use transform="matrix(0.06790123456790122,0,0,0.06790123456790122,39.38271604938271,0)" xlink:href="#E"/><use transform="matrix(0.06790123456790122,0,0,0.06790123456790122,52.96296296296295,0)" xlink:href="#aa"/></g><path fill="#3a414a" d="M76-208v77h127v40H76V0H24v-248h183v40H76" id="ad"/><path fill="#3a414a" d="M67-125c0 53 21 87 73 88 37 1 54-22 65-47l45 17C233-25 199 4 140 4 58 4 20-42 15-125 8-235 124-281 211-232c18 10 29 29 36 50l-46 12c-8-25-30-41-62-41-52 0-71 34-72 86" id="ae"/><g id="l"><use transform="matrix(0.06172839506172839,0,0,0.06172839506172839,0,0)" xlink:href="#ad"/><use transform="matrix(0.06172839506172839,0,0,0.06172839506172839,13.518518518518517,0)" xlink:href="#ae"/></g><g id="m"><use transform="matrix(0.06172839506172839,0,0,0.06172839506172839,0,0)" xlink:href="#W"/><use transform="matrix(0.06172839506172839,0,0,0.06172839506172839,13.518518518518517,0)" xlink:href="#Q"/><use transform="matrix(0.06172839506172839,0,0,0.06172839506172839,25.864197530864196,0)" xlink:href="#aa"/><use transform="matrix(0.06172839506172839,0,0,0.06172839506172839,33.20987654320987,0)" xlink:href="#V"/><use transform="matrix(0.06172839506172839,0,0,0.06172839506172839,45.55555555555555,0)" xlink:href="#E"/><use transform="matrix(0.06172839506172839,0,0,0.06172839506172839,57.90123456790123,0)" xlink:href="#H"/></g><path fill="#3a414a" d="M143 4C61 4 22-44 18-125c-5-107 100-154 193-111 17 8 29 25 37 43l-32 9c-13-25-37-40-76-40-61 0-88 39-88 99 0 61 29 100 91 101 35 0 62-11 79-27v-45h-74v-28h105v86C228-13 192 4 143 4" id="af"/><g id="n"><use transform="matrix(0.06172839506172839,0,0,0.06172839506172839,0,0)" xlink:href="#af"/><use transform="matrix(0.06172839506172839,0,0,0.06172839506172839,17.28395061728395,0)" xlink:href="#P"/><use transform="matrix(0.06172839506172839,0,0,0.06172839506172839,29.629629629629626,0)" xlink:href="#H"/><use transform="matrix(0.06172839506172839,0,0,0.06172839506172839,35.80246913580247,0)" xlink:href="#E"/></g><path fill="#3a414a" d="M33 0v-248h34V0H33" id="ag"/><g id="o"><use transform="matrix(0.06172839506172839,0,0,0.06172839506172839,0,0)" xlink:href="#ag"/><use transform="matrix(0.06172839506172839,0,0,0.06172839506172839,6.172839506172839,0)" xlink:href="#G"/><use transform="matrix(0.06172839506172839,0,0,0.06172839506172839,18.51851851851852,0)" xlink:href="#N"/><use transform="matrix(0.06172839506172839,0,0,0.06172839506172839,30.864197530864196,0)" xlink:href="#M"/><use transform="matrix(0.06172839506172839,0,0,0.06172839506172839,43.20987654320987,0)" xlink:href="#H"/></g><path fill="#3a414a" d="M140-251c81 0 123 46 123 126C263-46 219 4 140 4 59 4 17-45 17-125s42-126 123-126zm0 227c63 0 89-41 89-101s-29-99-89-99c-61 0-89 39-89 99S79-25 140-24" id="ah"/><g id="p"><use transform="matrix(0.06172839506172839,0,0,0.06172839506172839,0,0)" xlink:href="#ah"/><use transform="matrix(0.06172839506172839,0,0,0.06172839506172839,17.28395061728395,0)" xlink:href="#M"/><use transform="matrix(0.06172839506172839,0,0,0.06172839506172839,29.629629629629626,0)" xlink:href="#H"/><use transform="matrix(0.06172839506172839,0,0,0.06172839506172839,35.80246913580247,0)" xlink:href="#N"/><use transform="matrix(0.06172839506172839,0,0,0.06172839506172839,48.148148148148145,0)" xlink:href="#M"/><use transform="matrix(0.06172839506172839,0,0,0.06172839506172839,60.49382716049382,0)" xlink:href="#H"/></g><path fill="#3a414a" d="M121-226c-27-7-43 5-38 36h38v33H83V0H34v-157H6v-33h28c-9-59 32-81 87-68v32" id="ai"/><path fill="#3a414a" d="M67-93c0 74 22 123 53 168H70C40 30 18-18 18-93s22-123 52-168h50c-32 44-53 94-53 168" id="aj"/><path fill="#3a414a" d="M115-3C79 11 28 4 28-45v-112H4v-33h27l15-45h31v45h36v33H77v99c-1 23 16 31 38 25v30" id="ak"/><path fill="#3a414a" d="M102-93c0 74-22 123-52 168H0C30 29 54-18 53-93c0-74-22-123-53-168h50c30 45 52 94 52 168" id="al"/><g id="q"><use transform="matrix(0.06790123456790123,0,0,0.06790123456790123,0,0)" xlink:href="#ai"/><use transform="matrix(0.04753086419753086,0,0,0.04753086419753086,8.080246913580247,3.4222222222222216)" xlink:href="#aj"/><use transform="matrix(0.04753086419753086,0,0,0.04753086419753086,13.736419753086421,3.4222222222222216)" xlink:href="#ak"/><use transform="matrix(0.04753086419753086,0,0,0.04753086419753086,19.392592592592592,3.4222222222222216)" xlink:href="#al"/></g><path fill="#3a414a" d="M195-6C206 82 75 100 31 46c-4-6-6-13-8-21l49-6c3 16 16 24 34 25 40 0 42-37 40-79-11 22-30 35-61 35-53 0-70-43-70-97 0-56 18-96 73-97 30 0 46 14 59 34l2-30h47zm-90-29c32 0 41-27 41-63 0-35-9-62-40-62-32 0-39 29-40 63 0 36 9 62 39 62" id="am"/><g id="r"><use transform="matrix(0.06790123456790123,0,0,0.06790123456790123,0,0)" xlink:href="#am"/><use transform="matrix(0.04753086419753086,0,0,0.04753086419753086,14.87037037037037,3.4222222222222216)" xlink:href="#aj"/><use transform="matrix(0.04753086419753086,0,0,0.04753086419753086,20.526543209876543,3.4222222222222216)" xlink:href="#ak"/><use transform="matrix(0.04753086419753086,0,0,0.04753086419753086,26.182716049382716,3.4222222222222216)" xlink:href="#al"/></g><path fill="#3a414a" d="M25-224v-37h50v37H25zM25 0v-190h50V0H25" id="an"/><g id="s"><use transform="matrix(0.06790123456790123,0,0,0.06790123456790123,0,0)" xlink:href="#an"/><use transform="matrix(0.04753086419753086,0,0,0.04753086419753086,6.7901234567901225,3.4222222222222216)" xlink:href="#aj"/><use transform="matrix(0.04753086419753086,0,0,0.04753086419753086,12.446296296296296,3.4222222222222216)" xlink:href="#ak"/><use transform="matrix(0.04753086419753086,0,0,0.04753086419753086,18.10246913580247,3.4222222222222216)" xlink:href="#al"/></g><path fill="#3a414a" d="M110-194c64 0 96 36 96 99 0 64-35 99-97 99-61 0-95-36-95-99 0-62 34-99 96-99zm-1 164c35 0 45-28 45-65 0-40-10-65-43-65-34 0-45 26-45 65 0 36 10 65 43 65" id="ao"/><g id="t"><use transform="matrix(0.06790123456790123,0,0,0.06790123456790123,0,0)" xlink:href="#ao"/><use transform="matrix(0.04753086419753086,0,0,0.04753086419753086,14.87037037037037,3.4222222222222216)" xlink:href="#aj"/><use transform="matrix(0.04753086419753086,0,0,0.04753086419753086,20.526543209876543,3.4222222222222216)" xlink:href="#ak"/><use transform="matrix(0.04753086419753086,0,0,0.04753086419753086,26.182716049382716,3.4222222222222216)" xlink:href="#al"/></g><path fill="#3a414a" d="M190-63c-7 42-38 67-86 67-59 0-84-38-90-98-12-110 154-137 174-36l-49 2c-2-19-15-32-35-32-30 0-35 28-38 64-6 74 65 87 74 30" id="ap"/><path fill="#3a414a" d="M14-72v-43h91v43H14" id="aq"/><path fill="#3a414a" d="M23 0v-37h61v-169l-59 37v-38l62-41h46v211h57V0H23" id="ar"/><g id="u"><use transform="matrix(0.06790123456790123,0,0,0.06790123456790123,0,0)" xlink:href="#ap"/><use transform="matrix(0.04753086419753086,0,0,0.04753086419753086,13.580246913580245,3.4222222222222216)" xlink:href="#aj"/><use transform="matrix(0.04753086419753086,0,0,0.04753086419753086,19.23641975308642,3.4222222222222216)" xlink:href="#ak"/><use transform="matrix(0.04753086419753086,0,0,0.04753086419753086,24.892592592592592,3.4222222222222216)" xlink:href="#aq"/><use transform="matrix(0.04753086419753086,0,0,0.04753086419753086,30.548765432098765,3.4222222222222216)" xlink:href="#ar"/><use transform="matrix(0.04753086419753086,0,0,0.04753086419753086,40.05493827160494,3.4222222222222216)" xlink:href="#al"/></g><path fill="#3a414a" d="M114-157C55-157 80-60 75 0H25v-261h50l-1 109c12-26 28-41 61-42 86-1 58 113 63 194h-50c-7-57 23-157-34-157" id="as"/><g id="v"><use transform="matrix(0.06790123456790123,0,0,0.06790123456790123,0,0)" xlink:href="#as"/><use transform="matrix(0.04753086419753086,0,0,0.04753086419753086,14.87037037037037,3.4222222222222216)" xlink:href="#aj"/><use transform="matrix(0.04753086419753086,0,0,0.04753086419753086,20.526543209876543,3.4222222222222216)" xlink:href="#ak"/><use transform="matrix(0.04753086419753086,0,0,0.04753086419753086,26.182716049382716,3.4222222222222216)" xlink:href="#aq"/><use transform="matrix(0.04753086419753086,0,0,0.04753086419753086,31.83888888888889,3.4222222222222216)" xlink:href="#ar"/><use transform="matrix(0.04753086419753086,0,0,0.04753086419753086,41.34506172839506,3.4222222222222216)" xlink:href="#al"/></g><g id="w"><use transform="matrix(0.06790123456790123,0,0,0.06790123456790123,0,0)" xlink:href="#ap"/><use transform="matrix(0.04753086419753086,0,0,0.04753086419753086,13.580246913580245,3.4222222222222216)" xlink:href="#aj"/><use transform="matrix(0.04753086419753086,0,0,0.04753086419753086,19.23641975308642,3.4222222222222216)" xlink:href="#ak"/><use transform="matrix(0.04753086419753086,0,0,0.04753086419753086,24.892592592592592,3.4222222222222216)" xlink:href="#al"/></g><g id="x"><use transform="matrix(0.06790123456790123,0,0,0.06790123456790123,0,0)" xlink:href="#as"/><use transform="matrix(0.04753086419753086,0,0,0.04753086419753086,14.87037037037037,3.4222222222222216)" xlink:href="#aj"/><use transform="matrix(0.04753086419753086,0,0,0.04753086419753086,20.526543209876543,3.4222222222222216)" xlink:href="#ak"/><use transform="matrix(0.04753086419753086,0,0,0.04753086419753086,26.182716049382716,3.4222222222222216)" xlink:href="#al"/></g><path fill="#3a414a" d="M144 0l-44-69L55 0H2l70-98-66-92h53l41 62 40-62h54l-67 91 71 99h-54" id="at"/><g id="y"><use transform="matrix(0.06790123456790123,0,0,0.06790123456790123,0,0)" xlink:href="#at"/><use transform="matrix(0.04753086419753086,0,0,0.04753086419753086,13.580246913580245,3.4222222222222216)" xlink:href="#aj"/><use transform="matrix(0.04753086419753086,0,0,0.04753086419753086,19.23641975308642,3.4222222222222216)" xlink:href="#ak"/><use transform="matrix(0.04753086419753086,0,0,0.04753086419753086,24.892592592592592,3.4222222222222216)" xlink:href="#al"/></g><path fill="#3a414a" d="M123 10C108 53 80 86 19 72V37c35 8 53-11 59-39L3-190h52l48 148c12-52 28-100 44-148h51" id="au"/><g id="z"><use transform="matrix(0.06790123456790123,0,0,0.06790123456790123,0,0)" xlink:href="#au"/><use transform="matrix(0.04753086419753086,0,0,0.04753086419753086,13.580246913580245,3.4222222222222216)" xlink:href="#aj"/><use transform="matrix(0.04753086419753086,0,0,0.04753086419753086,19.23641975308642,3.4222222222222216)" xlink:href="#ak"/><use transform="matrix(0.04753086419753086,0,0,0.04753086419753086,24.892592592592592,3.4222222222222216)" xlink:href="#al"/></g><path fill="#3a414a" d="M24 0v-248h52v208h133V0H24" id="av"/><path fill="#3a414a" d="M169-182c-1-43-94-46-97-3 18 66 151 10 154 114 3 95-165 93-204 36-6-8-10-19-12-30l50-8c3 46 112 56 116 5-17-69-150-10-154-114-4-87 153-88 188-35 5 8 8 18 10 28" id="aw"/><path fill="#3a414a" d="M136-208V0H84v-208H4v-40h212v40h-80" id="ax"/><path fill="#3a414a" d="M230 0l2-204L168 0h-37L68-204 70 0H24v-248h70l56 185 57-185h69V0h-46" id="ay"/><g id="A"><use transform="matrix(0.08024691358024691,0,0,0.08024691358024691,0,0)" xlink:href="#av"/><use transform="matrix(0.08024691358024691,0,0,0.08024691358024691,17.574074074074073,0)" xlink:href="#aw"/><use transform="matrix(0.08024691358024691,0,0,0.08024691358024691,36.83333333333333,0)" xlink:href="#ax"/><use transform="matrix(0.08024691358024691,0,0,0.08024691358024691,54.407407407407405,0)" xlink:href="#ay"/></g><path fill="#3a414a" d="M185-48c-13 30-37 53-82 52C43 2 14-33 14-96s30-98 90-98c62 0 83 45 84 108H66c0 31 8 55 39 56 18 0 30-7 34-22zm-45-69c5-46-57-63-70-21-2 6-4 13-4 21h74" id="az"/><path fill="#3a414a" d="M25 0v-261h50V0H25" id="aA"/><g id="B"><use transform="matrix(0.08024691358024691,0,0,0.08024691358024691,0,0)" xlink:href="#ae"/><use transform="matrix(0.08024691358024691,0,0,0.08024691358024691,20.78395061728395,0)" xlink:href="#az"/><use transform="matrix(0.08024691358024691,0,0,0.08024691358024691,36.83333333333333,0)" xlink:href="#aA"/><use transform="matrix(0.08024691358024691,0,0,0.08024691358024691,44.858024691358025,0)" xlink:href="#aA"/></g></defs></g></svg>