<svg xmlns="http://www.w3.org/2000/svg" xmlns:xlink="http://www.w3.org/1999/xlink" xmlns:lucid="lucid" width="1252.87" height="397.5"><g transform="translate(0.5 -699.5)" lucid:page-tab-id="0_0"><path d="M587.3 821.2c16.57 0 30 13.42 30 30v19.47c0 16.57-13.43 30-30 30H510c-16.57 0-30-13.43-30-30V851.2c0-16.58 13.43-30 30-30zM773.1 821.2c16.58 0 30 13.42 30 30v19.47c0 16.57-13.42 30-30 30h-77.3c-16.56 0-30-13.43-30-30V851.2c0-16.58 13.44-30 30-30zM958.92 821.2c16.57 0 30 13.42 30 30v19.47c0 16.57-13.43 30-30 30h-77.3c-16.57 0-30-13.43-30-30V851.2c0-16.58 13.43-30 30-30zM1201.87 821.2c16.57 0 30 13.42 30 30v19.47c0 16.57-13.43 30-30 30h-77.3c-16.57 0-30-13.43-30-30V851.2c0-16.58 13.43-30 30-30zM267.3 820c16.57 0 30 13.43 30 30v19.48c0 16.56-13.43 30-30 30H190c-16.57 0-30-13.44-30-30V850c0-16.57 13.43-30 30-30z" stroke="#3a414a" fill="#ffd9d9"/><path d="M618.8 860.93H646.8" stroke="#3a414a" stroke-width="2" fill="none"/><path d="M618.82 861.93h-1.02v-2h1.02z" stroke="#3a414a" stroke-width=".05" fill="#3a414a"/><path d="M662.07 860.93l-14.26 4.63v-9.27z" stroke="#3a414a" stroke-width="2" fill="#3a414a"/><path d="M804.6 860.93h28.02" stroke="#3a414a" stroke-width="2" fill="none"/><path d="M804.63 861.93h-1.02v-2h1.03z" stroke="#3a414a" stroke-width=".05" fill="#3a414a"/><path d="M847.9 860.93l-14.28 4.63v-9.27z" stroke="#3a414a" stroke-width="2" fill="#3a414a"/><path d="M548.65 919.67v80.52" stroke="#3a414a" stroke-width="2" fill="none"/><path d="M548.65 904.4l4.63 14.27H544z" stroke="#3a414a" stroke-width="2" fill="#3a414a"/><path d="M548.65 1000.16v1.03M734.46 919.67V1000.2" stroke="#3a414a" stroke-width="2" fill="none"/><path d="M734.46 904.4l4.63 14.27h-9.27z" stroke="#3a414a" stroke-width="2" fill="#3a414a"/><path d="M734.46 1000.16v1.03M920.27 919.67V1000.2" stroke="#3a414a" stroke-width="2" fill="none"/><path d="M920.27 904.4l4.64 14.27h-9.26z" stroke="#3a414a" stroke-width="2" fill="#3a414a"/><path d="M920.27 1000.16v1.03M1163.22 919.67v80.52" stroke="#3a414a" stroke-width="2" fill="none"/><path d="M1163.22 904.4l4.63 14.27h-9.26z" stroke="#3a414a" stroke-width="2" fill="#3a414a"/><path d="M1163.22 1000.16v1.03M990.42 860.93h4.28m8.55 0h8.56m8.56 0h8.55m8.57 0h8.5m8.46 0h8.45m8.46 0h4.23" stroke="#3a414a" stroke-width="2" fill="none"/><path d="M990.45 861.93h-1.03v-2h1.03z" stroke="#3a414a" stroke-width=".05" fill="#3a414a"/><path d="M1090.83 860.93l-14.26 4.63v-9.27z" stroke="#3a414a" stroke-width="2" fill="#3a414a"/><path d="M502.97 846.93a6 6 0 0 1 6-6h79.35a6 6 0 0 1 6 6v28a6 6 0 0 1-6 6h-79.35a6 6 0 0 1-6-6z" stroke="#000" stroke-opacity="0" fill="#fff" fill-opacity="0"/><use xlink:href="#a" transform="matrix(1,0,0,1,507.97336375022655,845.9282329198691) translate(17.018518518518526 19.65277777777777)"/><path d="M874.6 846.93a6 6 0 0 1 6-6h79.35a6 6 0 0 1 6 6v28a6 6 0 0 1-6 6H880.6a6 6 0 0 1-6-6z" stroke="#000" stroke-opacity="0" fill="#fff" fill-opacity="0"/><use xlink:href="#a" transform="matrix(1,0,0,1,879.5956370009063,845.9282329198695) translate(17.018518518518526 19.65277777777777)"/><path d="M1117.54 846.93a6 6 0 0 1 6-6h79.36a6 6 0 0 1 6 6v28a6 6 0 0 1-6 6h-79.36a6 6 0 0 1-6-6z" stroke="#000" stroke-opacity="0" fill="#fff" fill-opacity="0"/><use xlink:href="#a" transform="matrix(1,0,0,1,1122.5443940832577,845.9282329198696) translate(17.018518518518526 19.65277777777777)"/><path d="M688.8 846.93a6 6 0 0 1 6-6h79.34a6 6 0 0 1 6 6v28a6 6 0 0 1-6 6h-79.36a6 6 0 0 1-6-6z" stroke="#000" stroke-opacity="0" fill="#fff" fill-opacity="0"/><use xlink:href="#a" transform="matrix(1,0,0,1,693.7845003755664,845.9282329198695) translate(17.018518518518526 19.65277777777777)"/><path d="M718.5 1001.86h31.74v39.33H718.5z" fill="#fff" fill-opacity="0"/><use xlink:href="#b" transform="matrix(1,0,0,1,723.5133182917044,1006.8564658397386) translate(0 19.555555555555554)"/><path d="M531.25 1001.86h31.72v39.33h-31.73z" fill="#fff" fill-opacity="0"/><use xlink:href="#c" transform="matrix(1,0,0,1,536.2449686884983,1006.8564658397381) translate(0 19.555555555555554)"/><path d="M902.87 1001.86h31.73v39.33h-31.73z" fill="#fff" fill-opacity="0"/><use xlink:href="#d" transform="matrix(1,0,0,1,907.8672419391779,1006.8564658397386) translate(0 19.555555555555554)"/><path d="M1147.36 1001.86h31.72v39.33h-31.72z" fill="#fff" fill-opacity="0"/><use xlink:href="#e" transform="matrix(1,0,0,1,1152.3557419689846,1006.8564658397387) translate(0 19.555555555555554)"/><path d="M532.8 720h31.7v39.33H532.8z" fill="#fff" fill-opacity="0"/><use xlink:href="#f" transform="matrix(1,0,0,1,537.7847116359535,725.0000000000001) translate(0 19.555555555555554)"/><path d="M718.6 720h31.72v39.33H718.6z" fill="#fff" fill-opacity="0"/><use xlink:href="#g" transform="matrix(1,0,0,1,723.5958482612933,725.0000000000006) translate(0 19.555555555555554)"/><path d="M904.4 720h31.74v39.33H904.4z" fill="#fff" fill-opacity="0"/><use xlink:href="#h" transform="matrix(1,0,0,1,909.4069848866333,725.0000000000006) translate(0 19.555555555555554)"/><path d="M1147.36 720h31.72v39.33h-31.72z" fill="#fff" fill-opacity="0"/><use xlink:href="#i" transform="matrix(1,0,0,1,1152.3557419689846,725.0000000000006) translate(0 19.555555555555554)"/><path d="M20 986a6 6 0 0 1 6-6h128a6 6 0 0 1 6 6v48a6 6 0 0 1-6 6H26a6 6 0 0 1-6-6z" stroke="#000" stroke-opacity="0" fill="#fff" fill-opacity="0"/><use xlink:href="#j" transform="matrix(1,0,0,1,25,985) translate(40.308641975308646 30.277777777777775)"/><path d="M20 726a6 6 0 0 1 6-6h128a6 6 0 0 1 6 6v48a6 6 0 0 1-6 6H26a6 6 0 0 1-6-6z" stroke="#000" stroke-opacity="0" fill="#fff" fill-opacity="0"/><use xlink:href="#k" transform="matrix(1,0,0,1,25,725) translate(31.66666666666667 30.277777777777775)"/><path d="M1030.04 1000.67h31.73V1040h-31.73z" fill="#fff" fill-opacity="0"/><use xlink:href="#l" transform="matrix(1,0,0,1,1035.0364452673152,1005.6666666666667) translate(0 19.555555555555554)"/><path d="M1030.04 720h31.73v39.33h-31.73z" fill="#fff" fill-opacity="0"/><use xlink:href="#l" transform="matrix(1,0,0,1,1035.0364452673152,725.0000000000006) translate(0 19.555555555555554)"/><path d="M548.65 819.7v-40" stroke="#3a414a" stroke-width="2" fill="none"/><path d="M549.65 820.7h-2v-1.04h2z" stroke="#3a414a" stroke-width=".05" fill="#3a414a"/><path d="M548.65 764.43l4.63 14.26H544z" stroke="#3a414a" stroke-width="2" fill="#3a414a"/><path d="M734.46 819.7V779.68" stroke="#3a414a" stroke-width="2" fill="none"/><path d="M735.46 820.7h-2v-1.04h2z" stroke="#3a414a" stroke-width=".05" fill="#3a414a"/><path d="M734.46 764.43l4.63 14.26h-9.27z" stroke="#3a414a" stroke-width="2" fill="#3a414a"/><path d="M920.27 819.7V779.68" stroke="#3a414a" stroke-width="2" fill="none"/><path d="M921.27 820.7h-2v-1.04h2z" stroke="#3a414a" stroke-width=".05" fill="#3a414a"/><path d="M920.27 764.43l4.64 14.26h-9.26z" stroke="#3a414a" stroke-width="2" fill="#3a414a"/><path d="M1163.22 819.7v-40" stroke="#3a414a" stroke-width="2" fill="none"/><path d="M1164.22 820.7h-2v-1.04h2z" stroke="#3a414a" stroke-width=".05" fill="#3a414a"/><path d="M1163.22 764.43l4.63 14.26h-9.26z" stroke="#3a414a" stroke-width="2" fill="#3a414a"/><path d="M228.65 918.48V999" stroke="#3a414a" stroke-width="2" fill="none"/><path d="M228.65 903.2l4.63 14.28H224z" stroke="#3a414a" stroke-width="2" fill="#3a414a"/><path d="M228.65 998.97v1.03" stroke="#3a414a" stroke-width="2" fill="none"/><path d="M182.97 845.74a6 6 0 0 1 6-6h79.35a6 6 0 0 1 6 6v28a6 6 0 0 1-6 6h-79.35a6 6 0 0 1-6-6z" stroke="#000" stroke-opacity="0" fill="#fff" fill-opacity="0"/><use xlink:href="#a" transform="matrix(1,0,0,1,187.97336375022655,844.7384337467977) translate(17.018518518518526 19.65277777777777)"/><path d="M216.94 1001.86h23.42v39.33h-23.42z" fill="#fff" fill-opacity="0"/><use xlink:href="#m" transform="matrix(1,0,0,1,221.93611379628675,1006.8564658397381) translate(0 19.555555555555554)"/><path d="M219.3 720h18.45v39.33H219.3z" fill="#fff" fill-opacity="0"/><use xlink:href="#n" transform="matrix(1,0,0,1,224.28978827192594,725.0000000000002) translate(0 19.555555555555554)"/><path d="M228.65 818.5v-40" stroke="#3a414a" stroke-width="2" fill="none"/><path d="M229.65 819.5h-2v-1.03h2z" stroke="#3a414a" stroke-width=".05" fill="#3a414a"/><path d="M228.65 763.24l4.63 14.26H224z" stroke="#3a414a" stroke-width="2" fill="#3a414a"/><path d="M294.5 834.3l2.85-1.33 3.1-1 2.68-.54 2.35-.18 2.12.1 1.95.32 1.82.53 1.74.73 1.7.96 1.62 1.2 1.58 1.5 1.54 1.86 1.46 2.25 1.32 2.7 1.1 3.16.78 3.52.37 3.72-.07 3.7-.48 3.44-.8 3.1-1.07 2.68-1.23 2.3-1.37 1.94-1.48 1.65-1.6 1.4-1.7 1.17" stroke="#3a414a" stroke-width="2" stroke-linejoin="round" fill="none"/><path d="M294.95 835.18l-.88.4-.94-1.76.98-.45z" stroke="#3a414a" stroke-width=".05" fill="#3a414a"/><path d="M300.04 876.48l13.8-5.88.82 9.24z" stroke="#3a414a" stroke-width="2" fill="#3a414a"/><path d="M328 834.33h18.46v39.34H328z" fill="#fff" fill-opacity="0"/><use xlink:href="#o" transform="matrix(1,0,0,1,333,839.3333333333333) translate(0 19.555555555555554)"/><path d="M617.3 827.33h31.73v39.34H617.3z" fill="#fff" fill-opacity="0"/><use xlink:href="#p" transform="matrix(1,0,0,1,622.2978183336354,832.3333333333333) translate(0 19.555555555555554)"/><path d="M803.1 827.33h31.74v39.34H803.1z" fill="#fff" fill-opacity="0"/><use xlink:href="#q" transform="matrix(1,0,0,1,808.1089549589753,832.3333333333333) translate(0 19.555555555555554)"/><path d="M784.38 1075H543v-2h241.38zm347.12 0H837.62v-2h293.88z" stroke="#3a414a" stroke-width=".05" fill="#3a414a"/><path d="M543.03 1075H542v-2h1.03z" stroke="#3a414a" stroke-width=".05" fill="#3a414a"/><path d="M1146.76 1074l-14.26 4.63v-9.27z" fill="#3a414a"/><path d="M1150 1074l-18.5 6v-12zm-16.5 3.26l10.03-3.26-10.03-3.26z" stroke="#3a414a" stroke-width=".05" fill="#3a414a"/><use xlink:href="#r" transform="matrix(1,0,0,1,784.3827160493827,1059.3333333333333) translate(0 19.555555555555557)"/><defs><path fill="#3a414a" d="M233-177c-1 41-23 64-60 70L243 0h-38l-65-103H63V0H30v-248c88 3 205-21 203 71zM63-129c60-2 137 13 137-47 0-61-80-42-137-45v92" id="s"/><path fill="#3a414a" d="M190 0L58-211 59 0H30v-248h39L202-35l-2-213h31V0h-41" id="t"/><g id="a"><use transform="matrix(0.06172839506172837,0,0,0.06172839506172837,0,0)" xlink:href="#s"/><use transform="matrix(0.06172839506172837,0,0,0.06172839506172837,15.987654320987648,0)" xlink:href="#t"/><use transform="matrix(0.06172839506172837,0,0,0.06172839506172837,31.975308641975296,0)" xlink:href="#t"/></g><path fill="#3a414a" d="M141 0L90-78 38 0H4l68-98-65-92h35l48 74 47-74h35l-64 92 68 98h-35" id="u"/><path fill="#3a414a" d="M101-251c82-7 93 87 43 132L82-64C71-53 59-42 53-27h129V0H18c2-99 128-94 128-182 0-28-16-43-45-43s-46 15-49 41l-32-3c6-41 34-60 81-64" id="v"/><g id="b"><use transform="matrix(0.06790123456790122,0,0,0.06790123456790122,0,0)" xlink:href="#u"/><use transform="matrix(0.04753086419753085,0,0,0.04753086419753085,12.22222222222222,3.422222222222221)" xlink:href="#v"/></g><path fill="#3a414a" d="M27 0v-27h64v-190l-56 39v-29l58-41h29v221h61V0H27" id="w"/><g id="c"><use transform="matrix(0.06790123456790122,0,0,0.06790123456790122,0,0)" xlink:href="#u"/><use transform="matrix(0.04753086419753085,0,0,0.04753086419753085,12.22222222222222,3.422222222222221)" xlink:href="#w"/></g><path fill="#3a414a" d="M126-127c33 6 58 20 58 59 0 88-139 92-164 29-3-8-5-16-6-25l32-3c6 27 21 44 54 44 32 0 52-15 52-46 0-38-36-46-79-43v-28c39 1 72-4 72-42 0-27-17-43-46-43-28 0-47 15-49 41l-32-3c6-42 35-63 81-64 48-1 79 21 79 65 0 36-21 52-52 59" id="x"/><g id="d"><use transform="matrix(0.06790123456790122,0,0,0.06790123456790122,0,0)" xlink:href="#u"/><use transform="matrix(0.04753086419753085,0,0,0.04753086419753085,12.22222222222222,3.422222222222221)" xlink:href="#x"/></g><path fill="#3a414a" d="M117-194c89-4 53 116 60 194h-32v-121c0-31-8-49-39-48C34-167 62-67 57 0H25l-1-190h30c1 10-1 24 2 32 11-22 29-35 61-36" id="y"/><g id="e"><use transform="matrix(0.06790123456790122,0,0,0.06790123456790122,0,0)" xlink:href="#u"/><use transform="matrix(0.04753086419753085,0,0,0.04753086419753085,12.22222222222222,3.422222222222221)" xlink:href="#y"/></g><path fill="#3a414a" d="M179-190L93 31C79 59 56 82 12 73V49c39 6 53-20 64-50L1-190h34L92-34l54-156h33" id="z"/><g id="f"><use transform="matrix(0.06790123456790122,0,0,0.06790123456790122,0,0)" xlink:href="#z"/><use transform="matrix(0.04753086419753085,0,0,0.04753086419753085,12.22222222222222,3.422222222222221)" xlink:href="#w"/></g><g id="g"><use transform="matrix(0.06790123456790122,0,0,0.06790123456790122,0,0)" xlink:href="#z"/><use transform="matrix(0.04753086419753085,0,0,0.04753086419753085,12.22222222222222,3.422222222222221)" xlink:href="#v"/></g><g id="h"><use transform="matrix(0.06790123456790122,0,0,0.06790123456790122,0,0)" xlink:href="#z"/><use transform="matrix(0.04753086419753085,0,0,0.04753086419753085,12.22222222222222,3.422222222222221)" xlink:href="#x"/></g><g id="i"><use transform="matrix(0.06790123456790122,0,0,0.06790123456790122,0,0)" xlink:href="#z"/><use transform="matrix(0.04753086419753085,0,0,0.04753086419753085,12.22222222222222,3.422222222222221)" xlink:href="#y"/></g><path fill="#3a414a" d="M33 0v-248h34V0H33" id="A"/><path fill="#3a414a" d="M115-194c55 1 70 41 70 98S169 2 115 4C84 4 66-9 55-30l1 105H24l-1-265h31l2 30c10-21 28-34 59-34zm-8 174c40 0 45-34 45-75s-6-73-45-74c-42 0-51 32-51 76 0 43 10 73 51 73" id="B"/><path fill="#3a414a" d="M84 4C-5 8 30-112 23-190h32v120c0 31 7 50 39 49 72-2 45-101 50-169h31l1 190h-30c-1-10 1-25-2-33-11 22-28 36-60 37" id="C"/><path fill="#3a414a" d="M59-47c-2 24 18 29 38 22v24C64 9 27 4 27-40v-127H5v-23h24l9-43h21v43h35v23H59v120" id="D"/><g id="j"><use transform="matrix(0.061728395061728385,0,0,0.061728395061728385,0,0)" xlink:href="#A"/><use transform="matrix(0.061728395061728385,0,0,0.061728395061728385,6.1728395061728385,0)" xlink:href="#y"/><use transform="matrix(0.061728395061728385,0,0,0.061728395061728385,18.518518518518515,0)" xlink:href="#B"/><use transform="matrix(0.061728395061728385,0,0,0.061728395061728385,30.864197530864192,0)" xlink:href="#C"/><use transform="matrix(0.061728395061728385,0,0,0.061728395061728385,43.20987654320987,0)" xlink:href="#D"/></g><path fill="#3a414a" d="M140-251c81 0 123 46 123 126C263-46 219 4 140 4 59 4 17-45 17-125s42-126 123-126zm0 227c63 0 89-41 89-101s-29-99-89-99c-61 0-89 39-89 99S79-25 140-24" id="E"/><g id="k"><use transform="matrix(0.061728395061728385,0,0,0.061728395061728385,0,0)" xlink:href="#E"/><use transform="matrix(0.061728395061728385,0,0,0.061728395061728385,17.28395061728395,0)" xlink:href="#C"/><use transform="matrix(0.061728395061728385,0,0,0.061728395061728385,29.629629629629626,0)" xlink:href="#D"/><use transform="matrix(0.061728395061728385,0,0,0.061728395061728385,35.80246913580247,0)" xlink:href="#B"/><use transform="matrix(0.061728395061728385,0,0,0.061728395061728385,48.148148148148145,0)" xlink:href="#C"/><use transform="matrix(0.061728395061728385,0,0,0.061728395061728385,60.49382716049382,0)" xlink:href="#D"/></g><path fill="#3a414a" d="M33 0v-38h34V0H33" id="F"/><g id="l"><use transform="matrix(0.06790123456790122,0,0,0.06790123456790122,0,0)" xlink:href="#F"/><use transform="matrix(0.06790123456790122,0,0,0.06790123456790122,6.790123456790122,0)" xlink:href="#F"/><use transform="matrix(0.06790123456790122,0,0,0.06790123456790122,13.580246913580243,0)" xlink:href="#F"/></g><use transform="matrix(0.06790123456790122,0,0,0.06790123456790122,0,0)" xlink:href="#u" id="m"/><use transform="matrix(0.06790123456790122,0,0,0.06790123456790122,0,0)" xlink:href="#z" id="n"/><path fill="#3a414a" d="M106-169C34-169 62-67 57 0H25v-261h32l-1 103c12-21 28-36 61-36 89 0 53 116 60 194h-32v-121c2-32-8-49-39-48" id="G"/><use transform="matrix(0.06790123456790122,0,0,0.06790123456790122,0,0)" xlink:href="#G" id="o"/><g id="p"><use transform="matrix(0.06790123456790122,0,0,0.06790123456790122,0,0)" xlink:href="#G"/><use transform="matrix(0.04753086419753085,0,0,0.04753086419753085,13.580246913580243,3.422222222222221)" xlink:href="#w"/></g><g id="q"><use transform="matrix(0.06790123456790122,0,0,0.06790123456790122,0,0)" xlink:href="#G"/><use transform="matrix(0.04753086419753085,0,0,0.04753086419753085,13.580246913580243,3.422222222222221)" xlink:href="#v"/></g><path fill="#333" d="M127-220V0H93v-220H8v-28h204v28h-85" id="H"/><path fill="#333" d="M24-231v-30h32v30H24zM24 0v-190h32V0H24" id="I"/><path fill="#333" d="M210-169c-67 3-38 105-44 169h-31v-121c0-29-5-50-35-48C34-165 62-65 56 0H25l-1-190h30c1 10-1 24 2 32 10-44 99-50 107 0 11-21 27-35 58-36 85-2 47 119 55 194h-31v-121c0-29-5-49-35-48" id="J"/><path fill="#333" d="M100-194c63 0 86 42 84 106H49c0 40 14 67 53 68 26 1 43-12 49-29l28 8c-11 28-37 45-77 45C44 4 14-33 15-96c1-61 26-98 85-98zm52 81c6-60-76-77-97-28-3 7-6 17-6 28h103" id="K"/><g id="r"><use transform="matrix(0.06790123456790123,0,0,0.06790123456790123,0,0)" xlink:href="#H"/><use transform="matrix(0.06790123456790123,0,0,0.06790123456790123,13.987654320987655,0)" xlink:href="#I"/><use transform="matrix(0.06790123456790123,0,0,0.06790123456790123,19.35185185185185,0)" xlink:href="#J"/><use transform="matrix(0.06790123456790123,0,0,0.06790123456790123,39.654320987654316,0)" xlink:href="#K"/></g></defs></g></svg>