<svg xmlns="http://www.w3.org/2000/svg" xmlns:xlink="http://www.w3.org/1999/xlink" xmlns:lucid="lucid" width="687.5" height="341.5"><g transform="translate(-219.5 -129.16666666666666)" lucid:page-tab-id="0_0"><path d="M492.53 252.6c16.57 0 30 13.43 30 30v19.47c0 16.57-13.43 30-30 30h-77.3c-16.57 0-30-13.43-30-30V282.6c0-16.57 13.43-30 30-30zM807.17 252.6c16.57 0 30 13.43 30 30v19.47c0 16.57-13.43 30-30 30h-77.3c-16.57 0-30-13.43-30-30V282.6c0-16.57 13.43-30 30-30z" stroke="#3a414a" fill="#ffd9d9"/><path d="M431.5 288.88c0 5.52-4.46 10-10 10-5.5 0-10-4.48-10-10s4.5-10 10-10c5.54 0 10 4.48 10 10zM461.1 288.88c0 5.52-4.48 10-10 10-5.53 0-10-4.48-10-10s4.47-10 10-10c5.52 0 10 4.48 10 10zM511.5 288.88c0 5.52-4.46 10-10 10-5.5 0-10-4.48-10-10s4.5-10 10-10c5.54 0 10 4.48 10 10z" stroke="#3a414a" fill="#dedeff"/><path d="M432.92 313.96l17.94 22.92" stroke="#3a414a" stroke-width="2" fill="none"/><path d="M423.5 301.94l12.45 8.37-7.3 5.73z" stroke="#3a414a" stroke-width="2" fill="#3a414a"/><path d="M450.84 336.86l.64.8M451.45 317.9l.34 18.2" stroke="#3a414a" stroke-width="2" fill="none"/><path d="M451.16 302.62l4.9 14.18-9.27.17z" stroke="#3a414a" stroke-width="2" fill="#3a414a"/><path d="M451.8 336.06v1.03M486.82 310.63l-34.55 26.43" stroke="#3a414a" stroke-width="2" fill="none"/><path d="M498.94 301.35l-8.5 12.35-5.64-7.36z" stroke="#3a414a" stroke-width="2" fill="#3a414a"/><path d="M452.3 337.04l-.82.63M422.24 277.7l28.5-27.25" stroke="#3a414a" stroke-width="2" fill="none"/><path d="M422.94 278.4l-.15.14-1.3-.16-1.67.22 1.73-1.65z" stroke="#3a414a" stroke-width=".05" fill="#3a414a"/><path d="M450.72 250.46l.74-.7M500.64 277.88l-48.3-27.63" stroke="#3a414a" stroke-width="2" fill="none"/><path d="M504.13 278.72l-2.62-.34-1.26.16.88-1.54z" stroke="#3a414a" stroke-width=".05" fill="#3a414a"/><path d="M452.35 250.26l-.9-.5M451.1 277.38v-26.63" stroke="#3a414a" stroke-width="2" fill="none"/><path d="M452.1 278.5l-1-.12-1 .13v-1.15h2z" stroke="#3a414a" stroke-width=".05" fill="#3a414a"/><path d="M451.1 250.78v-1.03M451.54 338.62V398M451.54 338.64v-1.02M451.54 397.97V399" stroke="#3a414a" stroke-width="2" fill="none"/><path d="M469.77 340.76l9.3 1.06 12.14.37 9.26-.5 7-.97 3.48-.73 7.38-2.23 7.05-3.1 6.6-3.92 5.87-4.53 4.9-4.82 3.76-4.7 2.6-4.22 1.65-3.57.94-2.9.44-2.34.13-1.66-.04-1.37-.22-1.92-.57-2.73-1.2-3.9-2.17-5.26-3.38-6.47-4.48-6.96-5.14-6.6-5.37-5.73-5.3-4.7-5.08-3.74-4.83-2.9-4.6-2.24-.3-.13-4.53-1.68-5.24-1.44-6.07-1.1-6.97-.68-7.75-.08-7.96.6-7.07 1.14-5.1 1.27-3.1 1.06-1.72.77-.96.54-.57.4-.36.28-.22.22-.15.18-.1.14-.08.12" stroke="#3a414a" stroke-width="2" stroke-linejoin="round" fill="none"/><path d="M454.82 337.9l14.88-1.87-1.73 9.1z" stroke="#3a414a" stroke-width="2" fill="#3a414a"/><path d="M451.1 249.12l.54.87M451.98 336.8l1.76-3.03m2.34-4.03l3.52-6.05m2.35-4.05l1.76-3.02M452 336.78l-.52.9" stroke="#3a414a" stroke-width="2" fill="none"/><path d="M471.4 303.43l-3.18 14.66-8-4.67z" stroke="#3a414a" stroke-width="2" fill="#3a414a"/><path d="M452.08 250.54l2.15 2.7m2.85 3.6l4.3 5.4m2.85 3.6l4.28 5.38m2.87 3.6l2.14 2.7M452.1 250.56l-.64-.8M473.5 277.5l.64.8M451.58 218.5v30.32" stroke="#3a414a" stroke-width="2" fill="none"/><path d="M451.58 203.24l4.64 14.26h-9.27z" stroke="#3a414a" stroke-width="2" fill="#3a414a"/><path d="M451.58 248.8v1.02" stroke="#3a414a" stroke-width="2" fill="none"/><path d="M461.1 274.45a6 6 0 0 1 6-6h25.25a6 6 0 0 1 6 6v13.25a6 6 0 0 1-6 6H467.1a6 6 0 0 1-6-6z" stroke="#000" stroke-opacity="0" fill="#fff" fill-opacity="0"/><use xlink:href="#a" transform="matrix(1,0,0,1,466.0956308444428,273.4482866168295) translate(4.740740740740742 17.777777777777775)"/><path d="M768.52 351.07v46.43" stroke="#3a414a" stroke-width="2" fill="none"/><path d="M768.52 335.8l4.63 14.27h-9.26z" stroke="#3a414a" stroke-width="2" fill="#3a414a"/><path d="M768.52 397.47v1.03" stroke="#3a414a" stroke-width="2" fill="none"/><path d="M722.84 278.33a6 6 0 0 1 6-6h79.36a6 6 0 0 1 6 6v28a6 6 0 0 1-6 6h-79.36a6 6 0 0 1-6-6z" stroke="#000" stroke-opacity="0" fill="#fff" fill-opacity="0"/><use xlink:href="#b" transform="matrix(1,0,0,1,727.8443713816071,277.33333333333326) translate(17.018518518518526 19.65277777777777)"/><path d="M756.8 400.5h23.43v39.33H756.8z" fill="#fff" fill-opacity="0"/><use xlink:href="#c" transform="matrix(1,0,0,1,761.8071214276672,405.5) translate(0 19.555555555555554)"/><path d="M759.3 160h18.45v39.33H759.3z" fill="#fff" fill-opacity="0"/><use xlink:href="#d" transform="matrix(1,0,0,1,764.2897882719259,165) translate(0 19.555555555555554)"/><path d="M768.52 251.1v-32.6" stroke="#3a414a" stroke-width="2" fill="none"/><path d="M769.52 252.1h-2v-1.03h2z" stroke="#3a414a" stroke-width=".05" fill="#3a414a"/><path d="M768.52 203.24l4.63 14.26h-9.26z" stroke="#3a414a" stroke-width="2" fill="#3a414a"/><path d="M834.38 266.88l2.84-1.3 3.1-1.03 2.68-.52 2.35-.18 2.12.1 1.95.3 1.83.54 1.73.73 1.68.96 1.63 1.2 1.57 1.5 1.54 1.86 1.47 2.25 1.32 2.7 1.1 3.16.77 3.5.37 3.73-.07 3.68-.48 3.46-.82 3.1-1.05 2.67-1.24 2.3-1.38 1.96-1.48 1.64-1.6 1.4-1.7 1.16" stroke="#3a414a" stroke-width="2" stroke-linejoin="round" fill="none"/><path d="M834.82 267.78l-.88.4-.94-1.76.98-.46z" stroke="#3a414a" stroke-width=".05" fill="#3a414a"/><path d="M839.9 309.07l13.8-5.87.83 9.23z" stroke="#3a414a" stroke-width="2" fill="#3a414a"/><path d="M868 265.74h18.46v39.33H868z" fill="#fff" fill-opacity="0"/><use xlink:href="#e" transform="matrix(1,0,0,1,873,270.73843374679734) translate(0 19.555555555555554)"/><path d="M240 396.17a6 6 0 0 1 6-6h128a6 6 0 0 1 6 6v48a6 6 0 0 1-6 6H246a6 6 0 0 1-6-6z" stroke="#000" stroke-opacity="0" fill="#fff" fill-opacity="0"/><use xlink:href="#f" transform="matrix(1,0,0,1,245,395.1666666666667) translate(40.308641975308646 30.277777777777775)"/><path d="M240 155.67a6 6 0 0 1 6-6h128a6 6 0 0 1 6 6v48a6 6 0 0 1-6 6H246a6 6 0 0 1-6-6z" stroke="#000" stroke-opacity="0" fill="#fff" fill-opacity="0"/><use xlink:href="#g" transform="matrix(1,0,0,1,245,154.66666666666666) translate(31.66666666666667 30.277777777777775)"/><path d="M553.33 278.88h18.46v39.33h-18.47z" fill="#fff" fill-opacity="0"/><use xlink:href="#e" transform="matrix(1,0,0,1,558.3333333333333,283.88136082976615) translate(0 19.555555555555554)"/><path d="M440.02 400.5h23.42v39.33h-23.42z" fill="#fff" fill-opacity="0"/><use xlink:href="#c" transform="matrix(1,0,0,1,445.0173331557414,405.5) translate(0 19.555555555555554)"/><path d="M442.5 160h18.46v39.33H442.5z" fill="#fff" fill-opacity="0"/><use xlink:href="#d" transform="matrix(1,0,0,1,447.5,165) translate(0 19.555555555555554)"/><defs><path fill="#3a414a" d="M33 0v-38h34V0H33" id="h"/><g id="a"><use transform="matrix(0.061728395061728385,0,0,0.061728395061728385,0,0)" xlink:href="#h"/><use transform="matrix(0.061728395061728385,0,0,0.061728395061728385,6.1728395061728385,0)" xlink:href="#h"/><use transform="matrix(0.061728395061728385,0,0,0.061728395061728385,12.345679012345677,0)" xlink:href="#h"/></g><path fill="#3a414a" d="M233-177c-1 41-23 64-60 70L243 0h-38l-65-103H63V0H30v-248c88 3 205-21 203 71zM63-129c60-2 137 13 137-47 0-61-80-42-137-45v92" id="i"/><path fill="#3a414a" d="M190 0L58-211 59 0H30v-248h39L202-35l-2-213h31V0h-41" id="j"/><g id="b"><use transform="matrix(0.06172839506172837,0,0,0.06172839506172837,0,0)" xlink:href="#i"/><use transform="matrix(0.06172839506172837,0,0,0.06172839506172837,15.987654320987648,0)" xlink:href="#j"/><use transform="matrix(0.06172839506172837,0,0,0.06172839506172837,31.975308641975296,0)" xlink:href="#j"/></g><path fill="#3a414a" d="M141 0L90-78 38 0H4l68-98-65-92h35l48 74 47-74h35l-64 92 68 98h-35" id="k"/><use transform="matrix(0.06790123456790122,0,0,0.06790123456790122,0,0)" xlink:href="#k" id="c"/><path fill="#3a414a" d="M179-190L93 31C79 59 56 82 12 73V49c39 6 53-20 64-50L1-190h34L92-34l54-156h33" id="l"/><use transform="matrix(0.06790123456790122,0,0,0.06790123456790122,0,0)" xlink:href="#l" id="d"/><path fill="#3a414a" d="M106-169C34-169 62-67 57 0H25v-261h32l-1 103c12-21 28-36 61-36 89 0 53 116 60 194h-32v-121c2-32-8-49-39-48" id="m"/><use transform="matrix(0.06790123456790122,0,0,0.06790123456790122,0,0)" xlink:href="#m" id="e"/><path fill="#3a414a" d="M33 0v-248h34V0H33" id="n"/><path fill="#3a414a" d="M117-194c89-4 53 116 60 194h-32v-121c0-31-8-49-39-48C34-167 62-67 57 0H25l-1-190h30c1 10-1 24 2 32 11-22 29-35 61-36" id="o"/><path fill="#3a414a" d="M115-194c55 1 70 41 70 98S169 2 115 4C84 4 66-9 55-30l1 105H24l-1-265h31l2 30c10-21 28-34 59-34zm-8 174c40 0 45-34 45-75s-6-73-45-74c-42 0-51 32-51 76 0 43 10 73 51 73" id="p"/><path fill="#3a414a" d="M84 4C-5 8 30-112 23-190h32v120c0 31 7 50 39 49 72-2 45-101 50-169h31l1 190h-30c-1-10 1-25-2-33-11 22-28 36-60 37" id="q"/><path fill="#3a414a" d="M59-47c-2 24 18 29 38 22v24C64 9 27 4 27-40v-127H5v-23h24l9-43h21v43h35v23H59v120" id="r"/><g id="f"><use transform="matrix(0.061728395061728385,0,0,0.061728395061728385,0,0)" xlink:href="#n"/><use transform="matrix(0.061728395061728385,0,0,0.061728395061728385,6.1728395061728385,0)" xlink:href="#o"/><use transform="matrix(0.061728395061728385,0,0,0.061728395061728385,18.518518518518515,0)" xlink:href="#p"/><use transform="matrix(0.061728395061728385,0,0,0.061728395061728385,30.864197530864192,0)" xlink:href="#q"/><use transform="matrix(0.061728395061728385,0,0,0.061728395061728385,43.20987654320987,0)" xlink:href="#r"/></g><path fill="#3a414a" d="M140-251c81 0 123 46 123 126C263-46 219 4 140 4 59 4 17-45 17-125s42-126 123-126zm0 227c63 0 89-41 89-101s-29-99-89-99c-61 0-89 39-89 99S79-25 140-24" id="s"/><g id="g"><use transform="matrix(0.061728395061728385,0,0,0.061728395061728385,0,0)" xlink:href="#s"/><use transform="matrix(0.061728395061728385,0,0,0.061728395061728385,17.28395061728395,0)" xlink:href="#q"/><use transform="matrix(0.061728395061728385,0,0,0.061728395061728385,29.629629629629626,0)" xlink:href="#r"/><use transform="matrix(0.061728395061728385,0,0,0.061728395061728385,35.80246913580247,0)" xlink:href="#p"/><use transform="matrix(0.061728395061728385,0,0,0.061728395061728385,48.148148148148145,0)" xlink:href="#q"/><use transform="matrix(0.061728395061728385,0,0,0.061728395061728385,60.49382716049382,0)" xlink:href="#r"/></g></defs></g></svg>